<!--?xml version="1.0" standalone="no"?-->
              <svg id="sw-js-blob-svg" viewBox="0 0 100 100" xmlns="http://www.w3.org/2000/svg" version="1.1">
                    <defs> 
                        <linearGradient id="sw-gradient" x1="0" x2="1" y1="1" y2="0">
                            <stop id="stop1" stop-color="rgba(248, 117, 55, 1)" offset="0%"></stop>
                            <stop id="stop2" stop-color="rgba(251, 168, 31, 1)" offset="100%"></stop>
                        </linearGradient>
                    </defs>
                <path fill="url(#sw-gradient)" d="M20,-35.1C26.1,-31.2,31.4,-26.2,35.8,-20.1C40.2,-14.1,43.7,-7.1,44.1,0.3C44.6,7.6,42,15.2,37.9,21.6C33.7,27.9,27.9,33.1,21.3,37C14.7,40.9,7.4,43.6,-0.5,44.4C-8.3,45.2,-16.6,44.2,-23,40.1C-29.3,36.1,-33.7,29,-36.3,21.8C-38.9,14.7,-39.7,7.3,-40.4,-0.4C-41.1,-8.1,-41.6,-16.2,-38.2,-22.1C-34.9,-28,-27.7,-31.8,-20.7,-35.2C-13.7,-38.6,-6.8,-41.7,0.1,-41.8C7,-41.9,13.9,-39,20,-35.1Z" width="100%" height="100%" transform="translate(50 50)" stroke-width="0" style="transition: 0.3s;"></path>
              </svg>